<svg xmlns="http://www.w3.org/2000/svg" viewBox="0 0 24 24" id="discourse"><path fill="#1D1D1B" d="M12.101 0C5.59 0 .108 5.279.108 11.791L.112 24l11.989-.013c6.512 0 11.791-5.482 11.791-11.994C23.892 5.482 18.613 0 12.101 0z"></path><path fill="#F2E88F" d="M12.216 4.563A7.308 7.308 0 0 0 5.79 15.354l-1.322 4.255 4.749-1.074a7.308 7.308 0 1 0 2.999-13.972z"></path><path fill="#00AEEF" d="M18.015 7.427a7.308 7.308 0 0 1-8.798 11.109L4.468 19.61l4.835-.572a7.308 7.308 0 0 0 8.712-11.611z"></path><path fill="#00953A" d="M16.668 6.078a7.308 7.308 0 0 1-7.589 11.967L4.468 19.61l4.749-1.074a7.308 7.308 0 0 0 7.451-12.458z"></path><path fill="#E63C2F" d="M6.227 15.516a7.307 7.307 0 0 1 11.788-8.088 7.308 7.308 0 0 0-12.226 7.927L4.467 19.61l1.76-4.094z"></path><path fill="#D13239" d="M5.79 15.354a7.308 7.308 0 0 1 10.878-9.277 7.308 7.308 0 0 0-11.331 9.162l-.869 4.37 1.322-4.255z"></path></svg>